<svg xmlns="http://www.w3.org/2000/svg" xmlns:xlink="http://www.w3.org/1999/xlink" xmlns:s="https://github.com/nturley/netlistsvg" width="785" height="415">
  <style>svg {
    stroke:#000;
    fill:none;
  }
  text {
    fill:#000;
    stroke:none;
    font-size:10px;
    font-weight: bold;
    font-family: "Courier New", monospace;
  }
  .nodelabel {
    text-anchor: middle;
  }
  .inputPortLabel {
    text-anchor: end;
  }
  .splitjoinBody {
    fill:#000;
  }</style>
  <g s:type="generic" transform="translate(670,279.5)" s:width="30" s:height="40" id="cell_accum0">
    <text x="15" y="-4" class="nodelabel cell_accum0" s:attribute="ref">accum</text>
    <rect width="30" height="80" s:generic="body" class="cell_accum0"/>
    <g transform="translate(0,10)" s:x="0" s:y="10" s:pid="in0" id="port_accum0~A">
      <text x="-3" y="-4" class="inputPortLabel cell_accum0">A</text>
    </g>
    <g transform="translate(0,30)" s:x="0" s:y="10" s:pid="in0" id="port_accum0~add">
      <text x="-3" y="-4" class="inputPortLabel cell_accum0">add</text>
    </g>
    <g transform="translate(0,50)" s:x="0" s:y="10" s:pid="in0" id="port_accum0~clk">
      <text x="-3" y="-4" class="inputPortLabel cell_accum0">clk</text>
    </g>
    <g transform="translate(0,70)" s:x="0" s:y="10" s:pid="in0" id="port_accum0~reset">
      <text x="-3" y="-4" class="inputPortLabel cell_accum0">reset</text>
    </g>
    <g transform="translate(30,10)" s:x="30" s:y="10" s:pid="out0" id="port_accum0~p">
      <text x="5" y="-4" style="fill:#000; stroke:none" class="cell_accum0">p</text>
    </g>
  </g>
  <g s:type="generic" transform="translate(229,336)" s:width="30" s:height="40" id="cell_comparador0">
    <text x="15" y="-4" class="nodelabel cell_comparador0" s:attribute="ref">comparador</text>
    <rect width="30" height="20" s:generic="body" class="cell_comparador0"/>
    <g transform="translate(0,10)" s:x="0" s:y="10" s:pid="in0" id="port_comparador0~B">
      <text x="-3" y="-4" class="inputPortLabel cell_comparador0">B</text>
    </g>
    <g transform="translate(30,10)" s:x="30" s:y="10" s:pid="out0" id="port_comparador0~z">
      <text x="5" y="-4" style="fill:#000; stroke:none" class="cell_comparador0">z</text>
    </g>
  </g>
  <g s:type="generic" transform="translate(361,165.5)" s:width="30" s:height="40" id="cell_control0">
    <text x="15" y="-4" class="nodelabel cell_control0" s:attribute="ref">control</text>
    <rect width="30" height="100" s:generic="body" class="cell_control0"/>
    <g transform="translate(0,10)" s:x="0" s:y="10" s:pid="in0" id="port_control0~clk">
      <text x="-3" y="-4" class="inputPortLabel cell_control0">clk</text>
    </g>
    <g transform="translate(0,30)" s:x="0" s:y="10" s:pid="in0" id="port_control0~lsb_B">
      <text x="-3" y="-4" class="inputPortLabel cell_control0">lsb_B</text>
    </g>
    <g transform="translate(0,50)" s:x="0" s:y="10" s:pid="in0" id="port_control0~rst">
      <text x="-3" y="-4" class="inputPortLabel cell_control0">rst</text>
    </g>
    <g transform="translate(0,70)" s:x="0" s:y="10" s:pid="in0" id="port_control0~start">
      <text x="-3" y="-4" class="inputPortLabel cell_control0">start</text>
    </g>
    <g transform="translate(0,90)" s:x="0" s:y="10" s:pid="in0" id="port_control0~z">
      <text x="-3" y="-4" class="inputPortLabel cell_control0">z</text>
    </g>
    <g transform="translate(30,10)" s:x="30" s:y="10" s:pid="out0" id="port_control0~add">
      <text x="5" y="-4" style="fill:#000; stroke:none" class="cell_control0">add</text>
    </g>
    <g transform="translate(30,30)" s:x="30" s:y="10" s:pid="out0" id="port_control0~done">
      <text x="5" y="-4" style="fill:#000; stroke:none" class="cell_control0">done</text>
    </g>
    <g transform="translate(30,50)" s:x="30" s:y="10" s:pid="out0" id="port_control0~reset_out">
      <text x="5" y="-4" style="fill:#000; stroke:none" class="cell_control0">reset_out</text>
    </g>
    <g transform="translate(30,70)" s:x="30" s:y="10" s:pid="out0" id="port_control0~shft">
      <text x="5" y="-4" style="fill:#000; stroke:none" class="cell_control0">shft</text>
    </g>
  </g>
  <g s:type="generic" transform="translate(538,217)" s:width="30" s:height="40" id="cell_left_shift0">
    <text x="15" y="-4" class="nodelabel cell_left_shift0" s:attribute="ref">left_shift</text>
    <rect width="30" height="80" s:generic="body" class="cell_left_shift0"/>
    <g transform="translate(0,10)" s:x="0" s:y="10" s:pid="in0" id="port_left_shift0~A_in">
      <text x="-3" y="-4" class="inputPortLabel cell_left_shift0">A_in</text>
    </g>
    <g transform="translate(0,30)" s:x="0" s:y="10" s:pid="in0" id="port_left_shift0~clk">
      <text x="-3" y="-4" class="inputPortLabel cell_left_shift0">clk</text>
    </g>
    <g transform="translate(0,50)" s:x="0" s:y="10" s:pid="in0" id="port_left_shift0~load">
      <text x="-3" y="-4" class="inputPortLabel cell_left_shift0">load</text>
    </g>
    <g transform="translate(0,70)" s:x="0" s:y="10" s:pid="in0" id="port_left_shift0~shift">
      <text x="-3" y="-4" class="inputPortLabel cell_left_shift0">shift</text>
    </g>
    <g transform="translate(30,10)" s:x="30" s:y="10" s:pid="out0" id="port_left_shift0~s_A">
      <text x="5" y="-4" style="fill:#000; stroke:none" class="cell_left_shift0">s_A</text>
    </g>
  </g>
  <g s:type="generic" transform="translate(113,175.5)" s:width="30" s:height="40" id="cell_right_shift0">
    <text x="15" y="-4" class="nodelabel cell_right_shift0" s:attribute="ref">right_shift</text>
    <rect width="30" height="80" s:generic="body" class="cell_right_shift0"/>
    <g transform="translate(0,10)" s:x="0" s:y="10" s:pid="in0" id="port_right_shift0~B_in">
      <text x="-3" y="-4" class="inputPortLabel cell_right_shift0">B_in</text>
    </g>
    <g transform="translate(0,30)" s:x="0" s:y="10" s:pid="in0" id="port_right_shift0~clk">
      <text x="-3" y="-4" class="inputPortLabel cell_right_shift0">clk</text>
    </g>
    <g transform="translate(0,50)" s:x="0" s:y="10" s:pid="in0" id="port_right_shift0~load">
      <text x="-3" y="-4" class="inputPortLabel cell_right_shift0">load</text>
    </g>
    <g transform="translate(0,70)" s:x="0" s:y="10" s:pid="in0" id="port_right_shift0~shift">
      <text x="-3" y="-4" class="inputPortLabel cell_right_shift0">shift</text>
    </g>
    <g transform="translate(30,10)" s:x="30" s:y="10" s:pid="out0" id="port_right_shift0~shift_B">
      <text x="5" y="-4" style="fill:#000; stroke:none" class="cell_right_shift0">shift_B</text>
    </g>
  </g>
  <g s:type="inputExt" transform="translate(229,206)" s:width="30" s:height="20" id="cell_reset">
    <text x="15" y="-4" class="nodelabel cell_reset" s:attribute="ref">reset</text>
    <s:alias val="$_inputExt_"/>
    <path d="M0,0 L0,20 L15,20 L30,10 L15,0 Z" class="cell_reset"/>
    <g s:x="28" s:y="10" s:pid="Y"/>
  </g>
  <g s:type="inputExt" transform="translate(12,132)" s:width="30" s:height="20" id="cell_clk">
    <text x="15" y="-4" class="nodelabel cell_clk" s:attribute="ref">clk</text>
    <s:alias val="$_inputExt_"/>
    <path d="M0,0 L0,20 L15,20 L30,10 L15,0 Z" class="cell_clk"/>
    <g s:x="28" s:y="10" s:pid="Y"/>
  </g>
  <g s:type="inputExt" transform="translate(229,271)" s:width="30" s:height="20" id="cell_start">
    <text x="15" y="-4" class="nodelabel cell_start" s:attribute="ref">start</text>
    <s:alias val="$_inputExt_"/>
    <path d="M0,0 L0,20 L15,20 L30,10 L15,0 Z" class="cell_start"/>
    <g s:x="28" s:y="10" s:pid="Y"/>
  </g>
  <g s:type="inputExt" transform="translate(229,22)" s:width="30" s:height="20" id="cell_A">
    <text x="15" y="-4" class="nodelabel cell_A" s:attribute="ref">A</text>
    <s:alias val="$_inputExt_"/>
    <path d="M0,0 L0,20 L15,20 L30,10 L15,0 Z" class="cell_A"/>
    <g s:x="28" s:y="10" s:pid="Y"/>
  </g>
  <g s:type="inputExt" transform="translate(12,67)" s:width="30" s:height="20" id="cell_B">
    <text x="15" y="-4" class="nodelabel cell_B" s:attribute="ref">B</text>
    <s:alias val="$_inputExt_"/>
    <path d="M0,0 L0,20 L15,20 L30,10 L15,0 Z" class="cell_B"/>
    <g s:x="28" s:y="10" s:pid="Y"/>
  </g>
  <g s:type="outputExt" transform="translate(743,280)" s:width="30" s:height="20" id="cell_p">
    <text x="15" y="-4" class="nodelabel cell_p" s:attribute="ref">p</text>
    <s:alias val="$_outputExt_"/>
    <path d="M30,0 L30,20 L15,20 L0,10 L15,0 Z" class="cell_p"/>
    <g s:x="0" s:y="10" s:pid="A"/>
  </g>
  <g s:type="outputExt" transform="translate(743,186)" s:width="30" s:height="20" id="cell_done">
    <text x="15" y="-4" class="nodelabel cell_done" s:attribute="ref">done</text>
    <s:alias val="$_outputExt_"/>
    <path d="M30,0 L30,20 L15,20 L0,10 L15,0 Z" class="cell_done"/>
    <g s:x="0" s:y="10" s:pid="A"/>
  </g>
  <g s:type="constant" transform="translate(229,87)" s:width="30" s:height="20" id="cell_0000000000000000">
    <text x="15" y="-4" class="nodelabel cell_0000000000000000" s:attribute="ref">0x0</text>
    <s:alias val="$_constant_"/>
    <rect width="30" height="20" class="cell_0000000000000000"/>
    <g s:x="30" s:y="10" s:pid="Y"/>
  </g>
  <g s:type="join" transform="translate(378,21.5)" s:width="4" s:height="40" id="cell_$join$,5,6,7,8,9,10,11,12,13,14,15,16,17,18,19,20,122,123,124,125,126,127,128,129,130,131,132,133,134,135,136,137,">
    <rect width="5" height="40" class="splitjoinBody" s:generic="body"/>
    <s:alias val="$_join_"/>
    <g s:x="5" s:y="20" s:pid="out"/>
    <g transform="translate(0,10)" s:x="0" s:y="10" s:pid="in0">
      <text x="-3" y="-4" class="inputPortLabel">0:15</text>
    </g>
    <g transform="translate(0,30)" s:x="0" s:y="10" s:pid="in0">
      <text x="-3" y="-4" class="inputPortLabel">16:31</text>
    </g>
  </g>
  <g s:type="split" transform="translate(254,153)" s:width="5" s:height="40" id="cell_$split$,104,105,106,107,108,109,110,111,112,113,114,115,116,117,118,119,">
    <rect width="5" height="20" class="splitjoinBody" s:generic="body"/>
    <s:alias val="$_split_"/>
    <g s:x="0" s:y="20" s:pid="in"/>
    <g transform="translate(4,10)" s:x="4" s:y="10" s:pid="out0">
      <text x="5" y="-4">0</text>
    </g>
  </g>
  <line x1="569" x2="614" y1="227.5" y2="227.5" class="net_70,71,72,73,74,75,76,77,78,79,80,81,82,83,84,85,86,87,88,89,90,91,92,93,94,95,96,97,98,99,100,101"/>
  <line x1="614" x2="614" y1="227.5" y2="290" class="net_70,71,72,73,74,75,76,77,78,79,80,81,82,83,84,85,86,87,88,89,90,91,92,93,94,95,96,97,98,99,100,101"/>
  <line x1="614" x2="670" y1="290" y2="290" class="net_70,71,72,73,74,75,76,77,78,79,80,81,82,83,84,85,86,87,88,89,90,91,92,93,94,95,96,97,98,99,100,101"/>
  <line x1="392" x2="477" y1="176" y2="176" class="net_102"/>
  <line x1="477" x2="477" y1="176" y2="310" class="net_102"/>
  <line x1="477" x2="670" y1="310" y2="310" class="net_102"/>
  <line x1="40" x2="52" y1="142" y2="142" class="net_3"/>
  <line x1="52" x2="52" y1="142" y2="391" class="net_3"/>
  <line x1="52" x2="614" y1="391" y2="391" class="net_3"/>
  <line x1="614" x2="614" y1="391" y2="330" class="net_3"/>
  <circle cx="52" cy="142" r="2" style="fill:#000" class="net_3"/>
  <line x1="614" x2="670" y1="330" y2="330" class="net_3"/>
  <line x1="40" x2="315" y1="142" y2="142" class="net_3"/>
  <line x1="315" x2="315" y1="142" y2="176" class="net_3"/>
  <circle cx="315" cy="142" r="2" style="fill:#000" class="net_3"/>
  <line x1="315" x2="361" y1="176" y2="176" class="net_3"/>
  <line x1="40" x2="487" y1="142" y2="142" class="net_3"/>
  <line x1="487" x2="487" y1="142" y2="247.5" class="net_3"/>
  <line x1="487" x2="538" y1="247.5" y2="247.5" class="net_3"/>
  <line x1="40" x2="52" y1="142" y2="142" class="net_3"/>
  <line x1="52" x2="52" y1="142" y2="206" class="net_3"/>
  <circle cx="52" cy="206" r="2" style="fill:#000" class="net_3"/>
  <line x1="52" x2="113" y1="206" y2="206" class="net_3"/>
  <line x1="392" x2="467" y1="216" y2="216" class="net_103"/>
  <line x1="467" x2="467" y1="216" y2="402" class="net_103"/>
  <line x1="467" x2="624" y1="402" y2="402" class="net_103"/>
  <line x1="624" x2="624" y1="402" y2="350" class="net_103"/>
  <line x1="624" x2="670" y1="350" y2="350" class="net_103"/>
  <line x1="392" x2="467" y1="216" y2="216" class="net_103"/>
  <line x1="467" x2="467" y1="216" y2="267.5" class="net_103"/>
  <circle cx="467" cy="267.5" r="2" style="fill:#000" class="net_103"/>
  <line x1="467" x2="538" y1="267.5" y2="267.5" class="net_103"/>
  <line x1="392" x2="467" y1="216" y2="216" class="net_103"/>
  <line x1="467" x2="467" y1="216" y2="380" class="net_103"/>
  <line x1="467" x2="62" y1="380" y2="380" class="net_103"/>
  <line x1="62" x2="62" y1="380" y2="226" class="net_103"/>
  <circle cx="467" cy="380" r="2" style="fill:#000" class="net_103"/>
  <line x1="62" x2="113" y1="226" y2="226" class="net_103"/>
  <line x1="144" x2="197" y1="186" y2="186" class="net_104,105,106,107,108,109,110,111,112,113,114,115,116,117,118,119"/>
  <line x1="197" x2="197" y1="186" y2="346.5" class="net_104,105,106,107,108,109,110,111,112,113,114,115,116,117,118,119"/>
  <circle cx="197" cy="186" r="2" style="fill:#000" class="net_104,105,106,107,108,109,110,111,112,113,114,115,116,117,118,119"/>
  <line x1="197" x2="229" y1="346.5" y2="346.5" class="net_104,105,106,107,108,109,110,111,112,113,114,115,116,117,118,119"/>
  <line x1="144" x2="254.5" y1="186" y2="186" class="net_104,105,106,107,108,109,110,111,112,113,114,115,116,117,118,119"/>
  <line x1="254.5" x2="254.5" y1="186" y2="174" class="net_104,105,106,107,108,109,110,111,112,113,114,115,116,117,118,119"/>
  <line x1="259" x2="305" y1="163.5" y2="163.5" class="net_104"/>
  <line x1="305" x2="305" y1="163.5" y2="196" class="net_104"/>
  <line x1="305" x2="361" y1="196" y2="196" class="net_104"/>
  <line x1="257" x2="361" y1="216" y2="216" class="net_2"/>
  <line x1="257" x2="305" y1="281" y2="281" class="net_4"/>
  <line x1="305" x2="305" y1="281" y2="236" class="net_4"/>
  <line x1="305" x2="361" y1="236" y2="236" class="net_4"/>
  <line x1="260" x2="315" y1="346.5" y2="346.5" class="net_120"/>
  <line x1="315" x2="315" y1="346.5" y2="256" class="net_120"/>
  <line x1="315" x2="361" y1="256" y2="256" class="net_120"/>
  <line x1="384" x2="497" y1="42" y2="42" class="net_5,6,7,8,9,10,11,12,13,14,15,16,17,18,19,20,122,123,124,125,126,127,128,129,130,131,132,133,134,135,136,137"/>
  <line x1="497" x2="497" y1="42" y2="227.5" class="net_5,6,7,8,9,10,11,12,13,14,15,16,17,18,19,20,122,123,124,125,126,127,128,129,130,131,132,133,134,135,136,137"/>
  <line x1="497" x2="538" y1="227.5" y2="227.5" class="net_5,6,7,8,9,10,11,12,13,14,15,16,17,18,19,20,122,123,124,125,126,127,128,129,130,131,132,133,134,135,136,137"/>
  <line x1="392" x2="457" y1="236" y2="236" class="net_121"/>
  <line x1="457" x2="457" y1="236" y2="287.5" class="net_121"/>
  <circle cx="457" cy="287.5" r="2" style="fill:#000" class="net_121"/>
  <line x1="457" x2="538" y1="287.5" y2="287.5" class="net_121"/>
  <line x1="392" x2="457" y1="236" y2="236" class="net_121"/>
  <line x1="457" x2="457" y1="236" y2="369" class="net_121"/>
  <line x1="457" x2="72" y1="369" y2="369" class="net_121"/>
  <line x1="72" x2="72" y1="369" y2="246" class="net_121"/>
  <line x1="72" x2="113" y1="246" y2="246" class="net_121"/>
  <line x1="40" x2="62" y1="77" y2="77" class="net_21,22,23,24,25,26,27,28,29,30,31,32,33,34,35,36"/>
  <line x1="62" x2="62" y1="77" y2="186" class="net_21,22,23,24,25,26,27,28,29,30,31,32,33,34,35,36"/>
  <line x1="62" x2="113" y1="186" y2="186" class="net_21,22,23,24,25,26,27,28,29,30,31,32,33,34,35,36"/>
  <line x1="701" x2="743" y1="290" y2="290" class="net_37,38,39,40,41,42,43,44,45,46,47,48,49,50,51,52,53,54,55,56,57,58,59,60,61,62,63,64,65,66,67,68"/>
  <line x1="392" x2="743" y1="196" y2="196" class="net_69"/>
  <line x1="257" x2="378" y1="32" y2="32" class="net_5,6,7,8,9,10,11,12,13,14,15,16,17,18,19,20"/>
  <line x1="259" x2="305" y1="97" y2="97" class="net_122,123,124,125,126,127,128,129,130,131,132,133,134,135,136,137"/>
  <line x1="305" x2="305" y1="97" y2="52" class="net_122,123,124,125,126,127,128,129,130,131,132,133,134,135,136,137"/>
  <line x1="305" x2="378" y1="52" y2="52" class="net_122,123,124,125,126,127,128,129,130,131,132,133,134,135,136,137"/>
</svg>
